<?xml version="1.0" encoding="UTF-8" standalone="no"?>
<!DOCTYPE svg PUBLIC "-//W3C//DTD SVG 1.1//EN"
 "http://www.w3.org/Graphics/SVG/1.1/DTD/svg11.dtd">
<!-- Generated by graphviz version 2.40.1 (20161225.0304)
 -->
<!-- Title: active_storage_attachments Pages: 1 -->
<svg width="729pt" height="742pt"
 viewBox="0.00 0.00 729.00 742.00" xmlns="http://www.w3.org/2000/svg" xmlns:xlink="http://www.w3.org/1999/xlink">
<g id="graph0" class="graph" transform="scale(1 1) rotate(0) translate(4 738)">
<title>active_storage_attachments</title>
<polygon fill="#ffffff" stroke="transparent" points="-4,4 -4,-738 725,-738 725,4 -4,4"/>
<!-- active_storage_attachments -->
<g id="node1" class="node">
<title>active_storage_attachments</title>
<polygon fill="#efefef" stroke="transparent" points="309,-652.5 309,-687.5 675,-687.5 675,-652.5 309,-652.5"/>
<polygon fill="none" stroke="#000000" points="309,-652.5 309,-687.5 675,-687.5 675,-652.5 309,-652.5"/>
<text text-anchor="start" x="315.6809" y="-665.3" font-family="Arial Bold" font-size="18.00" fill="#000000">active_storage_attachments</text>
<text text-anchor="start" x="540.7511" y="-665.3" font-family="Arial" font-size="14.00" fill="#000000">    </text>
<text text-anchor="start" x="574.9559" y="-665.3" font-family="Arial" font-size="14.00" fill="#666666">[BASE TABLE]</text>
<polygon fill="none" stroke="#000000" points="309,-622.5 309,-652.5 675,-652.5 675,-622.5 309,-622.5"/>
<text text-anchor="start" x="316" y="-633.9" font-family="Arial" font-size="14.00" fill="#000000">id </text>
<text text-anchor="start" x="330.7798" y="-633.9" font-family="Arial" font-size="14.00" fill="#666666">[bigint(20)]</text>
<polygon fill="none" stroke="#000000" points="309,-592.5 309,-622.5 675,-622.5 675,-592.5 309,-592.5"/>
<text text-anchor="start" x="316" y="-603.9" font-family="Arial" font-size="14.00" fill="#000000">name </text>
<text text-anchor="start" x="354.899" y="-603.9" font-family="Arial" font-size="14.00" fill="#666666">[varchar(255)]</text>
<polygon fill="none" stroke="#000000" points="309,-562.5 309,-592.5 675,-592.5 675,-562.5 309,-562.5"/>
<text text-anchor="start" x="316" y="-573.9" font-family="Arial" font-size="14.00" fill="#000000">record_type </text>
<text text-anchor="start" x="393.798" y="-573.9" font-family="Arial" font-size="14.00" fill="#666666">[varchar(255)]</text>
<polygon fill="none" stroke="#000000" points="309,-532.5 309,-562.5 675,-562.5 675,-532.5 309,-532.5"/>
<text text-anchor="start" x="316" y="-543.9" font-family="Arial" font-size="14.00" fill="#000000">record_id </text>
<text text-anchor="start" x="378.2314" y="-543.9" font-family="Arial" font-size="14.00" fill="#666666">[varchar(36)]</text>
<polygon fill="none" stroke="#000000" points="309,-502.5 309,-532.5 675,-532.5 675,-502.5 309,-502.5"/>
<text text-anchor="start" x="316" y="-513.9" font-family="Arial" font-size="14.00" fill="#000000">blob_id </text>
<text text-anchor="start" x="365.0168" y="-513.9" font-family="Arial" font-size="14.00" fill="#666666">[bigint(20)]</text>
<polygon fill="none" stroke="#000000" points="309,-472.5 309,-502.5 675,-502.5 675,-472.5 309,-472.5"/>
<text text-anchor="start" x="316" y="-483.9" font-family="Arial" font-size="14.00" fill="#000000">created_at </text>
<text text-anchor="start" x="386.028" y="-483.9" font-family="Arial" font-size="14.00" fill="#666666">[datetime(6)]</text>
<polygon fill="none" stroke="#000000" stroke-width="3" points="307.5,-471.5 307.5,-689.5 676.5,-689.5 676.5,-471.5 307.5,-471.5"/>
</g>
<!-- active_storage_blobs -->
<g id="node2" class="node">
<title>active_storage_blobs</title>
<polygon fill="#efefef" stroke="transparent" points="336,-312.5 336,-347.5 647,-347.5 647,-312.5 336,-312.5"/>
<polygon fill="none" stroke="#000000" points="336,-312.5 336,-347.5 647,-347.5 647,-312.5 336,-312.5"/>
<text text-anchor="start" x="342.6894" y="-325.3" font-family="Arial Bold" font-size="18.00" fill="#000000">active_storage_blobs</text>
<text text-anchor="start" x="512.7426" y="-325.3" font-family="Arial" font-size="14.00" fill="#000000">    </text>
<text text-anchor="start" x="546.9474" y="-325.3" font-family="Arial" font-size="14.00" fill="#666666">[BASE TABLE]</text>
<polygon fill="none" stroke="#000000" points="336,-282.5 336,-312.5 647,-312.5 647,-282.5 336,-282.5"/>
<text text-anchor="start" x="343" y="-293.9" font-family="Arial" font-size="14.00" fill="#000000">id    </text>
<text text-anchor="start" x="388.094" y="-293.9" font-family="Arial" font-size="14.00" fill="#666666">[bigint(20)]</text>
<polygon fill="none" stroke="#000000" points="336,-252.5 336,-282.5 647,-282.5 647,-252.5 336,-252.5"/>
<text text-anchor="start" x="343" y="-263.9" font-family="Arial" font-size="14.00" fill="#000000">key    </text>
<text text-anchor="start" x="398.9874" y="-263.9" font-family="Arial" font-size="14.00" fill="#666666">[varchar(255)]</text>
<polygon fill="none" stroke="#000000" points="336,-222.5 336,-252.5 647,-252.5 647,-222.5 336,-222.5"/>
<text text-anchor="start" x="343" y="-233.9" font-family="Arial" font-size="14.00" fill="#000000">filename    </text>
<text text-anchor="start" x="430.0996" y="-233.9" font-family="Arial" font-size="14.00" fill="#666666">[varchar(255)]</text>
<polygon fill="none" stroke="#000000" points="336,-192.5 336,-222.5 647,-222.5 647,-192.5 336,-192.5"/>
<text text-anchor="start" x="343" y="-203.9" font-family="Arial" font-size="14.00" fill="#000000">content_type    </text>
<text text-anchor="start" x="457.3548" y="-203.9" font-family="Arial" font-size="14.00" fill="#666666">[varchar(255)]</text>
<polygon fill="none" stroke="#000000" points="336,-162.5 336,-192.5 647,-192.5 647,-162.5 336,-162.5"/>
<text text-anchor="start" x="343" y="-173.9" font-family="Arial" font-size="14.00" fill="#000000">metadata    </text>
<text text-anchor="start" x="435.5596" y="-173.9" font-family="Arial" font-size="14.00" fill="#666666">[text]</text>
<polygon fill="none" stroke="#000000" points="336,-132.5 336,-162.5 647,-162.5 647,-132.5 336,-132.5"/>
<text text-anchor="start" x="343" y="-143.9" font-family="Arial" font-size="14.00" fill="#000000">service_name    </text>
<text text-anchor="start" x="464.3282" y="-143.9" font-family="Arial" font-size="14.00" fill="#666666">[varchar(255)]</text>
<polygon fill="none" stroke="#000000" points="336,-102.5 336,-132.5 647,-132.5 647,-102.5 336,-102.5"/>
<text text-anchor="start" x="343" y="-113.9" font-family="Arial" font-size="14.00" fill="#000000">byte_size    </text>
<text text-anchor="start" x="436.3324" y="-113.9" font-family="Arial" font-size="14.00" fill="#666666">[bigint(20)]</text>
<polygon fill="none" stroke="#000000" points="336,-72.5 336,-102.5 647,-102.5 647,-72.5 336,-72.5"/>
<text text-anchor="start" x="343" y="-83.9" font-family="Arial" font-size="14.00" fill="#000000">checksum    </text>
<text text-anchor="start" x="440.2132" y="-83.9" font-family="Arial" font-size="14.00" fill="#666666">[varchar(255)]</text>
<polygon fill="none" stroke="#000000" points="336,-42.5 336,-72.5 647,-72.5 647,-42.5 336,-42.5"/>
<text text-anchor="start" x="343" y="-53.9" font-family="Arial" font-size="14.00" fill="#000000">created_at    </text>
<text text-anchor="start" x="443.3422" y="-53.9" font-family="Arial" font-size="14.00" fill="#666666">[datetime(6)]</text>
</g>
<!-- active_storage_attachments&#45;&gt;active_storage_blobs -->
<g id="edge1" class="edge">
<title>active_storage_attachments:blob_id&#45;&gt;active_storage_blobs:id</title>
<path fill="none" stroke="#000000" d="M299.0665,-515.9776C271.3962,-506.409 284.6281,-454.1056 309,-427 359.5044,-370.8308 596.4956,-447.1692 647,-391 674.7846,-360.0989 688.5556,-297.5 647,-297.5"/>
<polygon fill="#000000" stroke="#000000" points="299.1154,-515.985 308.3183,-521.9481 304.0577,-516.7425 309,-517.5 309,-517.5 309,-517.5 304.0577,-516.7425 309.6817,-513.0519 299.1154,-515.985 299.1154,-515.985"/>
<text text-anchor="start" x="7.207" y="-527.5" font-family="Arial" font-size="10.00" fill="#000000">FOREIGN KEY (blob_id) REFERENCES active_storage_blobs (id)</text>
</g>
</g>
</svg>
