<?xml version="1.0" encoding="UTF-8" standalone="no"?>
<!DOCTYPE svg PUBLIC "-//W3C//DTD SVG 1.1//EN"
 "http://www.w3.org/Graphics/SVG/1.1/DTD/svg11.dtd">
<!-- Generated by graphviz version 2.40.1 (20161225.0304)
 -->
<!-- Title: active_storage_variant_records Pages: 1 -->
<svg width="755pt" height="652pt"
 viewBox="0.00 0.00 755.00 652.00" xmlns="http://www.w3.org/2000/svg" xmlns:xlink="http://www.w3.org/1999/xlink">
<g id="graph0" class="graph" transform="scale(1 1) rotate(0) translate(4 648)">
<title>active_storage_variant_records</title>
<polygon fill="#ffffff" stroke="transparent" points="-4,4 -4,-648 751,-648 751,4 -4,4"/>
<!-- active_storage_variant_records -->
<g id="node1" class="node">
<title>active_storage_variant_records</title>
<polygon fill="#efefef" stroke="transparent" points="309,-562.5 309,-597.5 701,-597.5 701,-562.5 309,-562.5"/>
<polygon fill="none" stroke="#000000" points="309,-562.5 309,-597.5 701,-597.5 701,-562.5 309,-562.5"/>
<text text-anchor="start" x="315.6876" y="-575.3" font-family="Arial Bold" font-size="18.00" fill="#000000">active_storage_variant_records</text>
<text text-anchor="start" x="566.7444" y="-575.3" font-family="Arial" font-size="14.00" fill="#000000">    </text>
<text text-anchor="start" x="600.9492" y="-575.3" font-family="Arial" font-size="14.00" fill="#666666">[BASE TABLE]</text>
<polygon fill="none" stroke="#000000" points="309,-532.5 309,-562.5 701,-562.5 701,-532.5 309,-532.5"/>
<text text-anchor="start" x="316" y="-543.9" font-family="Arial" font-size="14.00" fill="#000000">id </text>
<text text-anchor="start" x="330.7798" y="-543.9" font-family="Arial" font-size="14.00" fill="#666666">[bigint(20)]</text>
<polygon fill="none" stroke="#000000" points="309,-502.5 309,-532.5 701,-532.5 701,-502.5 309,-502.5"/>
<text text-anchor="start" x="316" y="-513.9" font-family="Arial" font-size="14.00" fill="#000000">blob_id </text>
<text text-anchor="start" x="365.0168" y="-513.9" font-family="Arial" font-size="14.00" fill="#666666">[bigint(20)]</text>
<polygon fill="none" stroke="#000000" points="309,-472.5 309,-502.5 701,-502.5 701,-472.5 309,-472.5"/>
<text text-anchor="start" x="316" y="-483.9" font-family="Arial" font-size="14.00" fill="#000000">variation_digest </text>
<text text-anchor="start" x="417.913" y="-483.9" font-family="Arial" font-size="14.00" fill="#666666">[varchar(255)]</text>
<polygon fill="none" stroke="#000000" stroke-width="3" points="307.5,-471.5 307.5,-599.5 702.5,-599.5 702.5,-471.5 307.5,-471.5"/>
</g>
<!-- active_storage_blobs -->
<g id="node2" class="node">
<title>active_storage_blobs</title>
<polygon fill="#efefef" stroke="transparent" points="349,-312.5 349,-347.5 660,-347.5 660,-312.5 349,-312.5"/>
<polygon fill="none" stroke="#000000" points="349,-312.5 349,-347.5 660,-347.5 660,-312.5 349,-312.5"/>
<text text-anchor="start" x="355.6894" y="-325.3" font-family="Arial Bold" font-size="18.00" fill="#000000">active_storage_blobs</text>
<text text-anchor="start" x="525.7426" y="-325.3" font-family="Arial" font-size="14.00" fill="#000000">    </text>
<text text-anchor="start" x="559.9474" y="-325.3" font-family="Arial" font-size="14.00" fill="#666666">[BASE TABLE]</text>
<polygon fill="none" stroke="#000000" points="349,-282.5 349,-312.5 660,-312.5 660,-282.5 349,-282.5"/>
<text text-anchor="start" x="356" y="-293.9" font-family="Arial" font-size="14.00" fill="#000000">id    </text>
<text text-anchor="start" x="401.094" y="-293.9" font-family="Arial" font-size="14.00" fill="#666666">[bigint(20)]</text>
<polygon fill="none" stroke="#000000" points="349,-252.5 349,-282.5 660,-282.5 660,-252.5 349,-252.5"/>
<text text-anchor="start" x="356" y="-263.9" font-family="Arial" font-size="14.00" fill="#000000">key    </text>
<text text-anchor="start" x="411.9874" y="-263.9" font-family="Arial" font-size="14.00" fill="#666666">[varchar(255)]</text>
<polygon fill="none" stroke="#000000" points="349,-222.5 349,-252.5 660,-252.5 660,-222.5 349,-222.5"/>
<text text-anchor="start" x="356" y="-233.9" font-family="Arial" font-size="14.00" fill="#000000">filename    </text>
<text text-anchor="start" x="443.0996" y="-233.9" font-family="Arial" font-size="14.00" fill="#666666">[varchar(255)]</text>
<polygon fill="none" stroke="#000000" points="349,-192.5 349,-222.5 660,-222.5 660,-192.5 349,-192.5"/>
<text text-anchor="start" x="356" y="-203.9" font-family="Arial" font-size="14.00" fill="#000000">content_type    </text>
<text text-anchor="start" x="470.3548" y="-203.9" font-family="Arial" font-size="14.00" fill="#666666">[varchar(255)]</text>
<polygon fill="none" stroke="#000000" points="349,-162.5 349,-192.5 660,-192.5 660,-162.5 349,-162.5"/>
<text text-anchor="start" x="356" y="-173.9" font-family="Arial" font-size="14.00" fill="#000000">metadata    </text>
<text text-anchor="start" x="448.5596" y="-173.9" font-family="Arial" font-size="14.00" fill="#666666">[text]</text>
<polygon fill="none" stroke="#000000" points="349,-132.5 349,-162.5 660,-162.5 660,-132.5 349,-132.5"/>
<text text-anchor="start" x="356" y="-143.9" font-family="Arial" font-size="14.00" fill="#000000">service_name    </text>
<text text-anchor="start" x="477.3282" y="-143.9" font-family="Arial" font-size="14.00" fill="#666666">[varchar(255)]</text>
<polygon fill="none" stroke="#000000" points="349,-102.5 349,-132.5 660,-132.5 660,-102.5 349,-102.5"/>
<text text-anchor="start" x="356" y="-113.9" font-family="Arial" font-size="14.00" fill="#000000">byte_size    </text>
<text text-anchor="start" x="449.3324" y="-113.9" font-family="Arial" font-size="14.00" fill="#666666">[bigint(20)]</text>
<polygon fill="none" stroke="#000000" points="349,-72.5 349,-102.5 660,-102.5 660,-72.5 349,-72.5"/>
<text text-anchor="start" x="356" y="-83.9" font-family="Arial" font-size="14.00" fill="#000000">checksum    </text>
<text text-anchor="start" x="453.2132" y="-83.9" font-family="Arial" font-size="14.00" fill="#666666">[varchar(255)]</text>
<polygon fill="none" stroke="#000000" points="349,-42.5 349,-72.5 660,-72.5 660,-42.5 349,-42.5"/>
<text text-anchor="start" x="356" y="-53.9" font-family="Arial" font-size="14.00" fill="#000000">created_at    </text>
<text text-anchor="start" x="456.3422" y="-53.9" font-family="Arial" font-size="14.00" fill="#666666">[datetime(6)]</text>
</g>
<!-- active_storage_variant_records&#45;&gt;active_storage_blobs -->
<g id="edge1" class="edge">
<title>active_storage_variant_records:blob_id&#45;&gt;active_storage_blobs:id</title>
<path fill="none" stroke="#000000" d="M299.0652,-515.9764C271.3863,-506.4 284.5752,-454.058 309,-427 361.5392,-368.7966 607.4608,-449.2034 660,-391 687.8449,-360.1532 701.5556,-297.5 660,-297.5"/>
<polygon fill="#000000" stroke="#000000" points="299.1156,-515.984 308.3178,-521.948 304.0578,-516.742 309,-517.5 309,-517.5 309,-517.5 304.0578,-516.742 309.6822,-513.052 299.1156,-515.984 299.1156,-515.984"/>
<text text-anchor="start" x="7.207" y="-527.5" font-family="Arial" font-size="10.00" fill="#000000">FOREIGN KEY (blob_id) REFERENCES active_storage_blobs (id)</text>
</g>
</g>
</svg>
