<?xml version="1.0" encoding="UTF-8" standalone="no"?>
<!DOCTYPE svg PUBLIC "-//W3C//DTD SVG 1.1//EN"
 "http://www.w3.org/Graphics/SVG/1.1/DTD/svg11.dtd">
<!-- Generated by graphviz version 2.40.1 (20161225.0304)
 -->
<!-- Title: active_storage_blobs Pages: 1 -->
<svg width="956pt" height="742pt"
 viewBox="0.00 0.00 956.00 742.00" xmlns="http://www.w3.org/2000/svg" xmlns:xlink="http://www.w3.org/1999/xlink">
<g id="graph0" class="graph" transform="scale(1 1) rotate(0) translate(4 738)">
<title>active_storage_blobs</title>
<polygon fill="#ffffff" stroke="transparent" points="-4,4 -4,-738 952,-738 952,4 -4,4"/>
<!-- active_storage_blobs -->
<g id="node1" class="node">
<title>active_storage_blobs</title>
<polygon fill="#efefef" stroke="transparent" points="311,-315.5 311,-350.5 622,-350.5 622,-315.5 311,-315.5"/>
<polygon fill="none" stroke="#000000" points="311,-315.5 311,-350.5 622,-350.5 622,-315.5 311,-315.5"/>
<text text-anchor="start" x="317.6894" y="-328.3" font-family="Arial Bold" font-size="18.00" fill="#000000">active_storage_blobs</text>
<text text-anchor="start" x="487.7426" y="-328.3" font-family="Arial" font-size="14.00" fill="#000000">    </text>
<text text-anchor="start" x="521.9474" y="-328.3" font-family="Arial" font-size="14.00" fill="#666666">[BASE TABLE]</text>
<polygon fill="none" stroke="#000000" points="311,-285.5 311,-315.5 622,-315.5 622,-285.5 311,-285.5"/>
<text text-anchor="start" x="318" y="-296.9" font-family="Arial" font-size="14.00" fill="#000000">id </text>
<text text-anchor="start" x="332.7798" y="-296.9" font-family="Arial" font-size="14.00" fill="#666666">[bigint(20)]</text>
<polygon fill="none" stroke="#000000" points="311,-255.5 311,-285.5 622,-285.5 622,-255.5 311,-255.5"/>
<text text-anchor="start" x="318" y="-266.9" font-family="Arial" font-size="14.00" fill="#000000">key </text>
<text text-anchor="start" x="343.6732" y="-266.9" font-family="Arial" font-size="14.00" fill="#666666">[varchar(255)]</text>
<polygon fill="none" stroke="#000000" points="311,-225.5 311,-255.5 622,-255.5 622,-225.5 311,-225.5"/>
<text text-anchor="start" x="318" y="-236.9" font-family="Arial" font-size="14.00" fill="#000000">filename </text>
<text text-anchor="start" x="374.7854" y="-236.9" font-family="Arial" font-size="14.00" fill="#666666">[varchar(255)]</text>
<polygon fill="none" stroke="#000000" points="311,-195.5 311,-225.5 622,-225.5 622,-195.5 311,-195.5"/>
<text text-anchor="start" x="318" y="-206.9" font-family="Arial" font-size="14.00" fill="#000000">content_type </text>
<text text-anchor="start" x="402.0406" y="-206.9" font-family="Arial" font-size="14.00" fill="#666666">[varchar(255)]</text>
<polygon fill="none" stroke="#000000" points="311,-165.5 311,-195.5 622,-195.5 622,-165.5 311,-165.5"/>
<text text-anchor="start" x="318" y="-176.9" font-family="Arial" font-size="14.00" fill="#000000">metadata </text>
<text text-anchor="start" x="380.2454" y="-176.9" font-family="Arial" font-size="14.00" fill="#666666">[text]</text>
<polygon fill="none" stroke="#000000" points="311,-135.5 311,-165.5 622,-165.5 622,-135.5 311,-135.5"/>
<text text-anchor="start" x="318" y="-146.9" font-family="Arial" font-size="14.00" fill="#000000">service_name </text>
<text text-anchor="start" x="409.014" y="-146.9" font-family="Arial" font-size="14.00" fill="#666666">[varchar(255)]</text>
<polygon fill="none" stroke="#000000" points="311,-105.5 311,-135.5 622,-135.5 622,-105.5 311,-105.5"/>
<text text-anchor="start" x="318" y="-116.9" font-family="Arial" font-size="14.00" fill="#000000">byte_size </text>
<text text-anchor="start" x="381.0182" y="-116.9" font-family="Arial" font-size="14.00" fill="#666666">[bigint(20)]</text>
<polygon fill="none" stroke="#000000" points="311,-75.5 311,-105.5 622,-105.5 622,-75.5 311,-75.5"/>
<text text-anchor="start" x="318" y="-86.9" font-family="Arial" font-size="14.00" fill="#000000">checksum </text>
<text text-anchor="start" x="384.899" y="-86.9" font-family="Arial" font-size="14.00" fill="#666666">[varchar(255)]</text>
<polygon fill="none" stroke="#000000" points="311,-45.5 311,-75.5 622,-75.5 622,-45.5 311,-45.5"/>
<text text-anchor="start" x="318" y="-56.9" font-family="Arial" font-size="14.00" fill="#000000">created_at </text>
<text text-anchor="start" x="388.028" y="-56.9" font-family="Arial" font-size="14.00" fill="#666666">[datetime(6)]</text>
<polygon fill="none" stroke="#000000" stroke-width="3" points="309,-44.5 309,-352.5 623,-352.5 623,-44.5 309,-44.5"/>
</g>
<!-- active_storage_attachments -->
<g id="node2" class="node">
<title>active_storage_attachments</title>
<polygon fill="#efefef" stroke="transparent" points="43,-655.5 43,-690.5 409,-690.5 409,-655.5 43,-655.5"/>
<polygon fill="none" stroke="#000000" points="43,-655.5 43,-690.5 409,-690.5 409,-655.5 43,-655.5"/>
<text text-anchor="start" x="49.6809" y="-668.3" font-family="Arial Bold" font-size="18.00" fill="#000000">active_storage_attachments</text>
<text text-anchor="start" x="274.7511" y="-668.3" font-family="Arial" font-size="14.00" fill="#000000">    </text>
<text text-anchor="start" x="308.9559" y="-668.3" font-family="Arial" font-size="14.00" fill="#666666">[BASE TABLE]</text>
<polygon fill="none" stroke="#000000" points="43,-625.5 43,-655.5 409,-655.5 409,-625.5 43,-625.5"/>
<text text-anchor="start" x="50" y="-636.9" font-family="Arial" font-size="14.00" fill="#000000">id    </text>
<text text-anchor="start" x="95.094" y="-636.9" font-family="Arial" font-size="14.00" fill="#666666">[bigint(20)]</text>
<polygon fill="none" stroke="#000000" points="43,-595.5 43,-625.5 409,-625.5 409,-595.5 43,-595.5"/>
<text text-anchor="start" x="50" y="-606.9" font-family="Arial" font-size="14.00" fill="#000000">name    </text>
<text text-anchor="start" x="119.2132" y="-606.9" font-family="Arial" font-size="14.00" fill="#666666">[varchar(255)]</text>
<polygon fill="none" stroke="#000000" points="43,-565.5 43,-595.5 409,-595.5 409,-565.5 43,-565.5"/>
<text text-anchor="start" x="50" y="-576.9" font-family="Arial" font-size="14.00" fill="#000000">record_type    </text>
<text text-anchor="start" x="158.1122" y="-576.9" font-family="Arial" font-size="14.00" fill="#666666">[varchar(255)]</text>
<polygon fill="none" stroke="#000000" points="43,-535.5 43,-565.5 409,-565.5 409,-535.5 43,-535.5"/>
<text text-anchor="start" x="50" y="-546.9" font-family="Arial" font-size="14.00" fill="#000000">record_id    </text>
<text text-anchor="start" x="142.5456" y="-546.9" font-family="Arial" font-size="14.00" fill="#666666">[varchar(36)]</text>
<polygon fill="none" stroke="#000000" points="43,-505.5 43,-535.5 409,-535.5 409,-505.5 43,-505.5"/>
<text text-anchor="start" x="50" y="-516.9" font-family="Arial" font-size="14.00" fill="#000000">blob_id    </text>
<text text-anchor="start" x="129.331" y="-516.9" font-family="Arial" font-size="14.00" fill="#666666">[bigint(20)]</text>
<polygon fill="none" stroke="#000000" points="43,-475.5 43,-505.5 409,-505.5 409,-475.5 43,-475.5"/>
<text text-anchor="start" x="50" y="-486.9" font-family="Arial" font-size="14.00" fill="#000000">created_at    </text>
<text text-anchor="start" x="150.3422" y="-486.9" font-family="Arial" font-size="14.00" fill="#666666">[datetime(6)]</text>
</g>
<!-- active_storage_attachments&#45;&gt;active_storage_blobs -->
<g id="edge1" class="edge">
<title>active_storage_attachments:blob_id&#45;&gt;active_storage_blobs:id</title>
<path fill="none" stroke="#000000" d="M419.1832,-518.8622C444.4527,-509.4487 428.9977,-461.6504 409,-433 382.4419,-394.9506 337.5581,-435.0494 311,-397 286.4523,-361.8309 268.1111,-300.5 311,-300.5"/>
<polygon fill="#000000" stroke="#000000" points="418.8731,-518.912 408.2854,-516.0571 413.9366,-519.706 409,-520.5 409,-520.5 409,-520.5 413.9366,-519.706 409.7146,-524.9429 418.8731,-518.912 418.8731,-518.912"/>
<text text-anchor="start" x="416.207" y="-530.5" font-family="Arial" font-size="10.00" fill="#000000">FOREIGN KEY (blob_id) REFERENCES active_storage_blobs (id)</text>
</g>
<!-- active_storage_variant_records -->
<g id="node3" class="node">
<title>active_storage_variant_records</title>
<polygon fill="#efefef" stroke="transparent" points="513,-610.5 513,-645.5 905,-645.5 905,-610.5 513,-610.5"/>
<polygon fill="none" stroke="#000000" points="513,-610.5 513,-645.5 905,-645.5 905,-610.5 513,-610.5"/>
<text text-anchor="start" x="519.6876" y="-623.3" font-family="Arial Bold" font-size="18.00" fill="#000000">active_storage_variant_records</text>
<text text-anchor="start" x="770.7444" y="-623.3" font-family="Arial" font-size="14.00" fill="#000000">    </text>
<text text-anchor="start" x="804.9492" y="-623.3" font-family="Arial" font-size="14.00" fill="#666666">[BASE TABLE]</text>
<polygon fill="none" stroke="#000000" points="513,-580.5 513,-610.5 905,-610.5 905,-580.5 513,-580.5"/>
<text text-anchor="start" x="520" y="-591.9" font-family="Arial" font-size="14.00" fill="#000000">id    </text>
<text text-anchor="start" x="565.094" y="-591.9" font-family="Arial" font-size="14.00" fill="#666666">[bigint(20)]</text>
<polygon fill="none" stroke="#000000" points="513,-550.5 513,-580.5 905,-580.5 905,-550.5 513,-550.5"/>
<text text-anchor="start" x="520" y="-561.9" font-family="Arial" font-size="14.00" fill="#000000">blob_id    </text>
<text text-anchor="start" x="599.331" y="-561.9" font-family="Arial" font-size="14.00" fill="#666666">[bigint(20)]</text>
<polygon fill="none" stroke="#000000" points="513,-520.5 513,-550.5 905,-550.5 905,-520.5 513,-520.5"/>
<text text-anchor="start" x="520" y="-531.9" font-family="Arial" font-size="14.00" fill="#000000">variation_digest    </text>
<text text-anchor="start" x="652.2272" y="-531.9" font-family="Arial" font-size="14.00" fill="#666666">[varchar(255)]</text>
</g>
<!-- active_storage_variant_records&#45;&gt;active_storage_blobs -->
<g id="edge2" class="edge">
<title>active_storage_variant_records:blob_id&#45;&gt;active_storage_blobs:id</title>
<path fill="none" stroke="#000000" d="M502.95,-563.9416C478.4214,-554.9699 497.3057,-509.216 513,-478 540.1113,-424.0756 594.8887,-450.9244 622,-397 641.2652,-358.6815 664.8889,-300.5 622,-300.5"/>
<polygon fill="#000000" stroke="#000000" points="503.1181,-563.9676 512.3104,-569.9469 508.059,-564.7338 513,-565.5 513,-565.5 513,-565.5 508.059,-564.7338 513.6896,-561.0531 503.1181,-563.9676 503.1181,-563.9676"/>
<text text-anchor="start" x="520.207" y="-575.5" font-family="Arial" font-size="10.00" fill="#000000">FOREIGN KEY (blob_id) REFERENCES active_storage_blobs (id)</text>
</g>
</g>
</svg>
