<?xml version="1.0" encoding="UTF-8" standalone="no"?>
<!DOCTYPE svg PUBLIC "-//W3C//DTD SVG 1.1//EN"
 "http://www.w3.org/Graphics/SVG/1.1/DTD/svg11.dtd">
<!-- Generated by graphviz version 2.40.1 (20161225.0304)
 -->
<!-- Title: background_jobs Pages: 1 -->
<svg width="378pt" height="525pt"
 viewBox="0.00 0.00 378.00 525.00" xmlns="http://www.w3.org/2000/svg" xmlns:xlink="http://www.w3.org/1999/xlink">
<g id="graph0" class="graph" transform="scale(1 1) rotate(0) translate(4 521)">
<title>background_jobs</title>
<polygon fill="#ffffff" stroke="transparent" points="-4,4 -4,-521 374,-521 374,4 -4,4"/>
<!-- background_jobs -->
<g id="node1" class="node">
<title>background_jobs</title>
<polygon fill="#efefef" stroke="transparent" points="46,-435.5 46,-470.5 324,-470.5 324,-435.5 46,-435.5"/>
<polygon fill="none" stroke="#000000" points="46,-435.5 46,-470.5 324,-470.5 324,-435.5 46,-435.5"/>
<text text-anchor="start" x="52.6918" y="-448.3" font-family="Arial Bold" font-size="18.00" fill="#000000">background_jobs</text>
<text text-anchor="start" x="189.7402" y="-448.3" font-family="Arial" font-size="14.00" fill="#000000">    </text>
<text text-anchor="start" x="223.945" y="-448.3" font-family="Arial" font-size="14.00" fill="#666666">[BASE TABLE]</text>
<polygon fill="none" stroke="#000000" points="46,-405.5 46,-435.5 324,-435.5 324,-405.5 46,-405.5"/>
<text text-anchor="start" x="53" y="-416.9" font-family="Arial" font-size="14.00" fill="#000000">id </text>
<text text-anchor="start" x="67.7798" y="-416.9" font-family="Arial" font-size="14.00" fill="#666666">[varchar(36)]</text>
<polygon fill="none" stroke="#000000" points="46,-375.5 46,-405.5 324,-405.5 324,-375.5 46,-375.5"/>
<text text-anchor="start" x="53" y="-386.9" font-family="Arial" font-size="14.00" fill="#000000">job_type </text>
<text text-anchor="start" x="109.8008" y="-386.9" font-family="Arial" font-size="14.00" fill="#666666">[int(11)]</text>
<polygon fill="none" stroke="#000000" points="46,-345.5 46,-375.5 324,-375.5 324,-345.5 46,-345.5"/>
<text text-anchor="start" x="53" y="-356.9" font-family="Arial" font-size="14.00" fill="#000000">status </text>
<text text-anchor="start" x="94.237" y="-356.9" font-family="Arial" font-size="14.00" fill="#666666">[int(11)]</text>
<polygon fill="none" stroke="#000000" points="46,-315.5 46,-345.5 324,-345.5 324,-315.5 46,-315.5"/>
<text text-anchor="start" x="53" y="-326.9" font-family="Arial" font-size="14.00" fill="#000000">external_api_limit </text>
<text text-anchor="start" x="165.7868" y="-326.9" font-family="Arial" font-size="14.00" fill="#666666">[int(11)]</text>
<polygon fill="none" stroke="#000000" points="46,-285.5 46,-315.5 324,-315.5 324,-285.5 46,-285.5"/>
<text text-anchor="start" x="53" y="-296.9" font-family="Arial" font-size="14.00" fill="#000000">external_api_requests_count </text>
<text text-anchor="start" x="236.6184" y="-296.9" font-family="Arial" font-size="14.00" fill="#666666">[int(11)]</text>
<polygon fill="none" stroke="#000000" points="46,-255.5 46,-285.5 324,-285.5 324,-255.5 46,-255.5"/>
<text text-anchor="start" x="53" y="-266.9" font-family="Arial" font-size="14.00" fill="#000000">next_request_at </text>
<text text-anchor="start" x="157.2664" y="-266.9" font-family="Arial" font-size="14.00" fill="#666666">[datetime(6)]</text>
<polygon fill="none" stroke="#000000" points="46,-225.5 46,-255.5 324,-255.5 324,-225.5 46,-225.5"/>
<text text-anchor="start" x="53" y="-236.9" font-family="Arial" font-size="14.00" fill="#000000">created_at </text>
<text text-anchor="start" x="123.028" y="-236.9" font-family="Arial" font-size="14.00" fill="#666666">[datetime(6)]</text>
<polygon fill="none" stroke="#000000" points="46,-195.5 46,-225.5 324,-225.5 324,-195.5 46,-195.5"/>
<text text-anchor="start" x="53" y="-206.9" font-family="Arial" font-size="14.00" fill="#000000">updated_at </text>
<text text-anchor="start" x="126.9326" y="-206.9" font-family="Arial" font-size="14.00" fill="#666666">[datetime(6)]</text>
<polygon fill="none" stroke="#000000" points="46,-165.5 46,-195.5 324,-195.5 324,-165.5 46,-165.5"/>
<text text-anchor="start" x="53" y="-176.9" font-family="Arial" font-size="14.00" fill="#000000">arguments </text>
<text text-anchor="start" x="123.0154" y="-176.9" font-family="Arial" font-size="14.00" fill="#666666">[json]</text>
<polygon fill="none" stroke="#000000" points="46,-135.5 46,-165.5 324,-165.5 324,-135.5 46,-135.5"/>
<text text-anchor="start" x="53" y="-146.9" font-family="Arial" font-size="14.00" fill="#000000">message </text>
<text text-anchor="start" x="113.6816" y="-146.9" font-family="Arial" font-size="14.00" fill="#666666">[text]</text>
<polygon fill="none" stroke="#000000" points="46,-105.5 46,-135.5 324,-135.5 324,-105.5 46,-105.5"/>
<text text-anchor="start" x="53" y="-116.9" font-family="Arial" font-size="14.00" fill="#000000">progress </text>
<text text-anchor="start" x="111.3422" y="-116.9" font-family="Arial" font-size="14.00" fill="#666666">[int(11)]</text>
<polygon fill="none" stroke="#000000" points="46,-75.5 46,-105.5 324,-105.5 324,-75.5 46,-75.5"/>
<text text-anchor="start" x="53" y="-86.9" font-family="Arial" font-size="14.00" fill="#000000">total </text>
<text text-anchor="start" x="83.3436" y="-86.9" font-family="Arial" font-size="14.00" fill="#666666">[int(11)]</text>
<polygon fill="none" stroke="#000000" points="46,-45.5 46,-75.5 324,-75.5 324,-45.5 46,-45.5"/>
<text text-anchor="start" x="53" y="-56.9" font-family="Arial" font-size="14.00" fill="#000000">finished_at </text>
<text text-anchor="start" x="124.5806" y="-56.9" font-family="Arial" font-size="14.00" fill="#666666">[datetime(6)]</text>
<polygon fill="none" stroke="#000000" stroke-width="3" points="44.5,-44.5 44.5,-472.5 325.5,-472.5 325.5,-44.5 44.5,-44.5"/>
</g>
</g>
</svg>
