<?xml version="1.0" encoding="UTF-8" standalone="no"?>
<!DOCTYPE svg PUBLIC "-//W3C//DTD SVG 1.1//EN"
 "http://www.w3.org/Graphics/SVG/1.1/DTD/svg11.dtd">
<!-- Generated by graphviz version 2.40.1 (20161225.0304)
 -->
<!-- Title: one_time_tokens Pages: 1 -->
<svg width="378pt" height="225pt"
 viewBox="0.00 0.00 378.00 225.00" xmlns="http://www.w3.org/2000/svg" xmlns:xlink="http://www.w3.org/1999/xlink">
<g id="graph0" class="graph" transform="scale(1 1) rotate(0) translate(4 221)">
<title>one_time_tokens</title>
<polygon fill="#ffffff" stroke="transparent" points="-4,4 -4,-221 374,-221 374,4 -4,4"/>
<!-- one_time_tokens -->
<g id="node1" class="node">
<title>one_time_tokens</title>
<polygon fill="#efefef" stroke="transparent" points="46,-135.5 46,-170.5 324,-170.5 324,-135.5 46,-135.5"/>
<polygon fill="none" stroke="#000000" points="46,-135.5 46,-170.5 324,-170.5 324,-135.5 46,-135.5"/>
<text text-anchor="start" x="52.6927" y="-148.3" font-family="Arial Bold" font-size="18.00" fill="#000000">one_time_tokens</text>
<text text-anchor="start" x="189.7393" y="-148.3" font-family="Arial" font-size="14.00" fill="#000000">    </text>
<text text-anchor="start" x="223.9441" y="-148.3" font-family="Arial" font-size="14.00" fill="#666666">[BASE TABLE]</text>
<polygon fill="none" stroke="#000000" points="46,-105.5 46,-135.5 324,-135.5 324,-105.5 46,-105.5"/>
<text text-anchor="start" x="53" y="-116.9" font-family="Arial" font-size="14.00" fill="#000000">id </text>
<text text-anchor="start" x="67.7798" y="-116.9" font-family="Arial" font-size="14.00" fill="#666666">[varchar(36)]</text>
<polygon fill="none" stroke="#000000" points="46,-75.5 46,-105.5 324,-105.5 324,-75.5 46,-75.5"/>
<text text-anchor="start" x="53" y="-86.9" font-family="Arial" font-size="14.00" fill="#000000">expires_at </text>
<text text-anchor="start" x="121.4614" y="-86.9" font-family="Arial" font-size="14.00" fill="#666666">[datetime(6)]</text>
<polygon fill="none" stroke="#000000" points="46,-45.5 46,-75.5 324,-75.5 324,-45.5 46,-45.5"/>
<text text-anchor="start" x="53" y="-56.9" font-family="Arial" font-size="14.00" fill="#000000">exchange_json </text>
<text text-anchor="start" x="151.0406" y="-56.9" font-family="Arial" font-size="14.00" fill="#666666">[json]</text>
<polygon fill="none" stroke="#000000" stroke-width="3" points="44.5,-44.5 44.5,-172.5 325.5,-172.5 325.5,-44.5 44.5,-44.5"/>
</g>
</g>
</svg>
